<?xml version="1.0" encoding="UTF-8"?>
<!DOCTYPE svg PUBLIC "-//W3C//DTD SVG 1.1//EN" "http://www.w3.org/Graphics/SVG/1.1/DTD/svg11.dtd">
<!-- Creator: CorelDRAW -->
<svg xmlns="http://www.w3.org/2000/svg" xml:space="preserve" width="252mm" height="121mm" version="1.1" style="shape-rendering:geometricPrecision; text-rendering:geometricPrecision; image-rendering:optimizeQuality; fill-rule:evenodd; clip-rule:evenodd"
viewBox="0 0 25200 12100"
 xmlns:xlink="http://www.w3.org/1999/xlink"
 xmlns:xodm="http://www.corel.com/coreldraw/odm/2003">
 <defs>
  <style type="text/css">
   <![CDATA[
    .fil1 {fill:#E01F25;fill-rule:nonzero}
    .fil0 {fill:#252422;fill-rule:nonzero}
   ]]>
  </style>
 </defs>
 <g id="Layer_x0020_1">
  <metadata id="CorelCorpID_0Corel-Layer"/>
  <path class="fil0" d="M918.02 6310.99l0 1746.04c0,46.25 -37.5,83.78 -83.78,83.78l-710.74 0c-46.29,0 -83.79,-37.53 -83.79,-83.78l0 -2867.8c0,-261.7 212.13,-473.86 473.82,-473.86l231.03 0c57.36,0 110.21,31.12 138.01,81.28l847.9 1528.98 905.33 -1568.35c15,-25.92 42.65,-41.91 72.6,-41.91l650.98 0c46.29,0 83.79,37.54 83.79,83.82l0 3257.84c0,46.25 -37.5,83.78 -83.79,83.78l-718.04 0c-46.28,0 -83.82,-37.53 -83.82,-83.78l0 -1744.95 -595.81 1008.13 -424.67 0 -619.02 -1009.22zm11042.02 -3351.83l-361.99 0c-186.05,-805.61 -664.35,-1499.27 -1317.27,-1963.67l-0.17 0c-40.08,-30.69 -79.94,-57.5 -119.17,-80.78 -608.86,-361.5 -1105.43,110.1 -1095.69,434.55 10.54,348.75 270.29,526.59 520.52,506.66 369.22,-29.53 291.43,-563.95 291.43,-563.95 214.03,0 530.93,798.05 -122.17,1019.1 -746.62,252.91 -1351.45,-369.53 -1305.03,-1161.41 22.3,-380.09 222.57,-668.34 282.89,-747.12 -125.02,-14.25 -252.23,-21.62 -381.1,-21.62 -146.65,0 -291.11,9.56 -432.72,28.01 263.63,-151.84 738.89,-372.25 1263.65,-285.43 0.32,0 0.49,0 0.49,0.17 103.58,17.11 225.25,46.25 329.82,90.17 0.35,0.18 0.49,0.18 0.84,0.32 94.37,32.03 187.05,67.56 277.89,106.61 0.31,0.14 0.81,0.32 1.16,0.49 1092.2,470.26 1913.57,1449 2166.62,2637.9zm-4470.68 -1546.87l-124 194.45c-5.9,-1.17 -47.1,-11.43 -53.13,-12.77 -24.17,-5.36 -71.23,-22.05 -94.16,-27.77l154.48 -209.9c42.9,17.61 81.78,36.55 116.81,55.99zm15663 6640.02l0 -1781.36 1203.33 1827.43c15.48,23.56 41.8,37.71 69.99,37.71l637.08 0c46.28,0 83.79,-37.5 83.79,-83.78l0 -3239.53c0,-46.28 -37.51,-83.82 -83.79,-83.82l-366.82 0c-243.27,0 -440.48,197.24 -440.48,440.52l0 1460.88 -1116.86 -1759.79c-55.95,-88.16 -153.1,-141.61 -257.52,-141.61l-181.9 0c-235.02,0 -425.52,190.54 -425.52,425.56l0 2897.79c0,46.28 37.5,83.78 83.79,83.78l711.13 0c46.28,0 83.78,-37.5 83.78,-83.78zm-2467.65 -1922.65c-74.09,74.09 -176.32,119.98 -289.42,119.98l-449.83 0c-86.32,0 -156.21,-69.88 -156.21,-156.17l0 -439.77c0,-104.39 -70.03,-195.9 -170.92,-223.07l776.96 0c226.06,0 409.4,183.34 409.4,409.62 0,113.1 -45.9,215.33 -119.98,289.41zm1131.25 1858.44l-645.72 -1204.84c442.41,-196.93 566.27,-490.37 579.19,-848.82l-3.71 -195.09c-4.51,-559.26 -459.17,-1010.43 -1018.61,-1010.43l-1395.87 0c-232.45,0 -421.01,188.56 -421.01,421.01l0 2902.34c0,46.28 37.54,83.82 83.82,83.82l736.89 0c46.25,0 83.78,-37.54 83.78,-83.82l0 -1089.52 -195.72 -44.06 685.27 24.48 540.67 1135.59c16.58,35.03 51.93,57.33 90.8,57.33l791.57 0c76.09,0 124.67,-81.14 88.65,-147.99zm-5610.39 -3259.13l2073.59 0c46.29,0 83.79,37.5 83.79,83.79l0 554c0,46.29 -37.5,83.79 -83.79,83.79l-1793.24 0 30.31 4.33c97.54,13.87 170.04,97.37 170.04,195.9l0 324.1c0,46.25 37.5,83.78 83.78,83.78l1181.81 0c46.28,0 83.78,37.5 83.78,83.79l0 511.63c0,46.29 -37.5,83.79 -83.78,83.79l-1437.68 0c98.46,12.98 172.09,96.9 172.09,196.21l0 363.01c0,46.28 37.5,83.78 83.78,83.78l1561.29 0c46.29,0 83.79,37.54 83.79,83.82l0 570.87c0,46.25 -37.5,83.78 -83.79,83.78l-2452.33 0c-46.29,0 -83.82,-37.53 -83.82,-83.78l0 -2896.2c0,-226.66 183.72,-410.39 410.38,-410.39zm-1857.51 1661.13c-69.57,1024.5 -126.55,996.85 -596.62,1019.81 -277.53,13.55 -277.53,13.9 -277.53,13.9 0,0 -215.02,-13.9 -228.95,-69.39 -13.9,-55.46 -20.78,-1672.06 -20.78,-1672.06 0,0 5.54,-56.66 -100.72,-145.63 -36.55,-30.51 -86.64,-69.39 -86.64,-69.39l763.2 0c0,0 612.38,-24.98 548.04,922.76zm-380.26 -1644.4l-1206.68 0c-246.34,0 -446.12,199.74 -446.12,446.12l0 2795.45c0,82.09 66.71,148.8 148.98,148.8l1530.63 0c699.03,0 1265.66,-566.63 1265.66,-1265.66l0 -832.24c0,-713.77 -578.7,-1292.47 -1292.47,-1292.47zm-7510.31 -2112.34c0.36,0.18 0.5,0.18 0.67,0.18 0.18,0.14 0.36,0.14 0.36,0.14l-1.03 -0.32zm-1181.86 -200.94l-432.71 0 432.71 0zm8599.48 646.9l560.92 208.14 -560.92 228.43 223.42 -218.2 -223.42 -218.37zm-6271.12 1460.4c-182.52,436.56 -87.31,682.59 -591.11,988.13 -503.94,305.51 -718.29,-127.04 -996,-95.22 -277.85,31.68 -263.59,297.33 -199.42,358.85 64.02,61.49 105.09,0 105.09,0 0,0 -48.79,-123.01 87.13,-123.01 132.75,0 165.25,264.79 -92.49,317.07 -5.72,1.34 -11.75,2.33 -17.78,3.36 -249.38,39.19 -380.09,-229.63 -328.48,-442.46 5.54,-23.28 13.41,-46.07 23.46,-67.52 102.56,-217.88 266.63,-361.53 625.44,-346.08 0,0 -146.12,-199.95 -386.96,-210.18 -240.98,-10.23 -392.15,140.93 -392.15,140.93 0,0 -92.85,-391.12 348.58,-461.18 161.4,-25.65 187.05,-2.68 187.05,-2.68 0,0 92.18,-524.9 579.01,-472.97 524.58,55.81 454.7,655.63 121,660.15 -220.02,3.03 -151.34,-274.35 0.36,-237.63 34.85,8.36 72.88,28.47 72.88,28.47 0,0 36.72,-208.99 -201.61,-208.99 -238.48,0 -311.72,223.73 -260.42,388.83 51.26,164.89 146.61,341.03 463.86,344.74 317.26,3.67 416.32,-220.06 511.67,-484.19 95.36,-264.12 354.12,-504.79 577.85,-567.12 223.74,-62.34 350.28,-40.54 350.28,-40.54 0,0 -404.75,92.82 -587.24,529.24zm-2577.22 -630.13c-135.92,20.92 -275.02,37.36 -412.96,44.24 -47.27,2.32 -94.51,3.66 -141.28,3.66 -647.25,0 -831.75,-272.16 -831.75,-536.61 0,-238.16 230.08,-414.97 531.25,-386.15 0,0 312.24,34.86 300.5,303.36 -11.89,268.32 -247.37,224.89 -274.5,137.26 -27.16,-87.49 45.23,-152.36 75.42,-147.81 30.31,4.51 31.82,-63.36 4.52,-84.49 -27.17,-21.27 -116.14,-54.79 -215.69,-48.44 -115.32,7.38 -267.83,101.57 -243.03,286.95 26.99,202.43 209.83,328.12 661.5,317.22 43.39,-0.99 85.79,-2.68 127.21,-5.01 149.65,-7.73 286.91,-22.79 413.28,-42.05 539.64,-81.99 881.52,-239.33 1145.64,-239.33 343.08,0 244.69,140.09 492.23,140.09 191.07,0 248.18,-251.39 248.18,-251.39l228.78 0c0,0 -121.85,460.73 -443.94,460.73 -390.66,0 -238.65,-149.68 -554.39,-149.68 -226.09,0 -650.59,125.87 -1110.97,197.27l0 0.18zm9908.51 -651.12l-1943.88 -624.77 700.87 608.18c0,0 -875,-10.54 -1685.96,-19.75 -122.21,-1.52 -243.03,-2.86 -359.17,-4.02 -474.27,-5.22 -870.65,-9.25 -969.68,-9.25 -284.41,0 -449.65,145.49 -528.92,145.49 -79.44,0 -115.81,-3.35 -254.56,-82.62 -138.78,-79.45 -968.52,-80.47 -968.52,-80.47l-1974.42 0c8.22,-163.55 -567.45,-398.18 -1783.68,-458.68 -132.05,-6.53 -271.64,-11.08 -418.96,-13.09 -64.35,-0.99 -130.21,-1.48 -197.59,-1.48 -1639.04,0 -1792.89,240.81 -1792.89,240.81 0,0 1.83,950.77 1272.33,1579.38 281.73,139.46 518.19,198.44 715.47,206.17 439.24,1563.3 1875.19,2709.43 3578.93,2709.43 58.63,0 117.12,-1.34 175.12,-4.19 -80.61,-96.88 -228.92,-260.6 -429.05,-417.97 -127.71,-100.23 -276.51,-198.09 -442.1,-274.01 -339.69,-155.85 -844.31,-231.45 -1107.62,-262.11 -107.24,-12.42 -174.45,-17.43 -174.45,-17.43 0,0 34.01,-15.41 96.52,-35.7 90.52,-29.31 241.16,-68.86 435.26,-86.32 327.98,-29.32 662.13,-0.82 662.13,-0.82 -14.08,-105.76 -29.99,-621.59 202.46,-1114.84 232.44,-493.05 732.89,-742.25 997.33,-831.57 264.48,-89.32 472.8,-72.74 684.29,-92.54 211.49,-19.93 475.97,-82.62 591.78,-135.57 115.64,-52.95 363.65,-112.46 462.71,-112.46 99.2,0 386.82,13.26 575.16,0 188.56,-13.23 524.9,-92.5 524.9,-92.5l99.73 -85.8c-7.72,147.32 -24.97,291.93 -51.29,433.57 -52.64,-34.19 -151.66,-85.98 -273.69,-93.21 -324.76,-19.08 -569.45,202.81 -465.73,509.17 90.7,267.79 407.42,163.9 407.42,76.09 0,0 -219.22,32 -231.42,-119.52 -8.22,-102.55 64.84,-209.13 207.78,-213.5 111.13,-3.35 264.13,138.11 225.43,330.16 0,0.18 0,0.32 -0.18,0.5 -11.89,34.18 -24.44,68.22 -37.53,101.88l0 0.18c-242.33,625.79 -668.2,1159.89 -1211.69,1536.66l32.85 -24.31c-10.9,8.4 -21.94,16.44 -32.85,24.31 -1.52,0.99 -2.86,2.01 -4.37,3l-0.54 0.39 -0.18 0.12 -0.02 0.02c-15.11,10.37 -30.17,20.59 -45.43,30.67l-0.02 0.02 -0.21 0.13 -0.52 0.33c-2.82,1.83 -5.68,3.7 -8.36,5.36 -620.93,391.83 -1132.42,-88.97 -1122.54,-417.97 10.55,-348.93 270.33,-526.73 520.52,-506.62 369.22,29.49 291.47,563.95 291.47,563.95 213.99,0 564.44,-764.58 -88.66,-985.77 -746.62,-252.91 -1335.23,334.82 -1338.58,1127.87 -0.98,262.29 133.92,532.94 280.07,748.8 109.08,161.22 224.41,291.96 293.8,365.69l0.14 0c1718.17,-327.31 3017.17,-1837.48 3017.17,-3651.14 0,-23.82 -0.18,-47.45 -0.68,-71.09l1671.08 -258.58 -627.98 661.14 1851.2 -809.8zm-10092.36 -826.06l432.71 0c420.83,-1010.57 1325,-1769.25 2423.91,-1987.45 77.57,-103.57 198.26,-253.75 355.1,-415.46 -1476.13,105.9 -2713.64,1073.75 -3211.72,2402.91zm3087.04 527.75l-793.9 0c0,0 -9.03,-32.52 -37.85,-72.07 -28.86,-39.55 -108.12,-111.62 -108.12,-111.62 0,0 234.13,-86.46 356.48,-334.82 122.52,-248.57 86.46,-727.36 86.46,-727.36 0,0 44.1,25.65 183.69,53.94 119.17,24.31 252.06,28.86 252.06,28.86 0,0 100.72,176.46 118.82,424.82 17.96,248.56 -57.64,738.25 -57.64,738.25zm-154.19 -1289.61c0,0 -28.15,13.9 -337.53,-49.78l104.74 -176.46c172.96,110.42 232.79,226.24 232.79,226.24zm-456.68 -334.68l-183.03 213c-25.64,-7.55 -76.27,-23.07 -100.25,-30.94l160.58 -219.11c19.12,4.7 38.73,10.06 58.84,16.09 22.12,6.7 43.39,13.58 63.86,20.96zm-507.14 1368.05c-489.37,-0.18 -386.82,-539.65 -117.16,-473.96 0,0 -116.98,110.28 -100.04,212.16 14.42,86.15 121.35,171.8 211.17,151.69 89.99,-20.28 195.08,-126.36 120.33,-304.2 -74.75,-177.97 -201.12,-217.34 -272.84,-217.34 -71.72,0 -290.26,37.22 -299.51,274.67 -8.71,224.76 92.71,280.88 103.58,286.42 -21.1,-6.03 -362.48,-102.41 -615.39,-117.65 -261.26,-15.59 -303.17,0 -303.17,0 0,0 130.74,-350.1 449.33,-705.24 318.73,-355.28 548.67,-435.89 548.67,-435.89 0,0 146.34,101.39 391.84,190.22 245.53,88.83 381.45,109.78 381.45,109.78 0,0 46.92,1029.34 -498.26,1029.34zm321.95 -1418.83l-175.97 204.64c-209.16,-77.78 -325.47,-153.21 -325.47,-153.21 0,0 178.82,-112.92 501.44,-51.43z"/>
  <path class="fil1" d="M2972.25 9853.72c216.86,162.56 459.53,326.82 728.17,485l-7.19 1739.13 -720.98 0 0 -2224.13zm19184.92 170.44l0 1311.56c0,203.13 -81.77,387.49 -214.17,521.41 -226.77,-151.7 -474.98,-284.24 -737.59,-400.23 133.07,-11.57 237.67,-123.33 237.67,-259.61l0 -1034.7c0,-143.96 -116.84,-260.59 -260.64,-260.59l-726.82 0 0 1277.05c-234.14,-72.56 -473.47,-135.08 -714.13,-188.87l0 -1708.12 1673.58 0c409.92,0 742.1,332.35 742.1,742.1zm-314.57 1918.09c-120.83,85.48 -268.32,135.58 -427.53,135.58l-1673.58 0 0 -809.45c259.96,47.76 498.09,102.23 714.13,159.38l0 30.16 110.59 0c640.72,178.65 1070.75,377.58 1276.39,484.33zm-3427.43 135.59l-811.81 0 -83.64 -511.32 -905.65 0 -96.87 511.32 -828.93 0 276.37 -932.15c307.02,-4.2 732.72,-27.16 1347.43,-47.41 290.62,-9.56 568.51,-8.89 833.3,0.32l269.8 979.24zm-370.54 -1344.76c-251.71,-22.61 -492.72,-38.38 -717.13,-48.93l-259.08 -903.82 -240.52 846.17 -11.71 40.54c-290.94,-5.36 -534.11,-2.86 -710.11,1.34l411.13 -1386.31 1127.72 0 399.7 1451.01zm-4349.85 611.88c297.32,-25.3 546.7,-48.93 734.91,-67.88l0 800.77 -734.91 0 0 -732.89zm734.89 -2062.9l0 1398.38c-201.96,31.68 -445.13,66.39 -734.9,102.06l0 -656.94 -230.75 684.6c-199.96,23.32 -419.49,46.92 -659.49,70.55l502.78 -1598.65 1122.36 0zm-2280.92 2172.17c407.74,-22.97 786.69,-48.93 1123.52,-74.93l-235.44 698.53 -721.82 0 -166.26 -623.6zm448.14 -553.9c-182.85,17.11 -376.91,34.01 -582.37,50.63l-278.37 -1044.29 0 1066.23c-217.39,16.58 -446.66,32.67 -688.31,48.44l0 -1739.27 1077.46 0 471.59 1618.26zm-1549.05 603.34c234.81,-7.87 464.89,-17.26 688.3,-27.98l0 602.16 -688.3 0 0 -574.18zm-1496.93 -1518.89l0 1118.02c-245.36,10.06 -483.34,15.07 -714.1,15.56l0 -994.16c0,-120.16 -97.4,-217.52 -217.55,-217.52l-578.84 0c-120.19,0 -217.7,97.36 -217.7,217.52l0 966.86c-248.04,-14.26 -486.02,-33.87 -714.13,-57.82l0 -1048.46c0,-388.16 314.57,-702.7 702.7,-702.7l1037.06 0c387.98,0 702.56,314.54 702.56,702.7zm-2441.65 1423.03c769.76,81.1 1602,114.79 2425.21,118.81 -69.22,315.24 -350.1,551.22 -686.12,551.22l-1037.06 0c-377.23,0 -684.92,-297.15 -702.03,-670.03zm-2150.04 -471.94c233.79,86.14 479.99,164.25 738.4,231.1l0 910.87 -1160.39 0 -638.53 -1626.16c264.8,145.66 552.73,284.09 863.6,408.44l196.92 461.54 0 -385.79zm738.41 -1653.81l0 1527.43c-266.13,-57.47 -512.16,-120.34 -738.39,-185.85l0 -1341.58 738.39 0zm-1081.47 1235.66c-317.07,-104.07 -587.9,-211.31 -814,-312.38l-100.22 -255.1 -0.81 209.17c-386.65,-179.64 -626.32,-333.34 -728.88,-404.39l0 -472.94 1116.51 0 527.4 1235.64z"/>
 </g>
</svg>
